<svg xmlns="http://www.w3.org/2000/svg" viewBox="202 112 1205 869" role="img" aria-label="lyft"><path d="M 1001.394 113.428 C 992.535 114.152, 983.085 115.467, 980.394 116.351 C 977.702 117.235, 970.550 119.118, 964.500 120.536 C 958.450 121.953, 952.150 123.806, 950.500 124.652 C 948.850 125.499, 944.638 127.288, 941.141 128.628 C 937.643 129.969, 933.325 132.176, 931.546 133.533 C 929.767 134.890, 927.836 136, 927.255 136 C 926.674 136, 923.504 138.025, 920.212 140.500 C 916.919 142.975, 913.886 145, 913.472 145 C 912.234 145, 904.561 151.863, 893.711 162.674 C 883.982 172.369, 879.850 177.167, 874.485 185 C 871.090 189.957, 861.456 209.463, 859.173 216 C 858.117 219.025, 856.337 223.975, 855.217 227 C 854.098 230.025, 852.204 238.125, 851.009 245 C 845.711 275.478, 845.927 264.815, 845.706 506.644 C 845.502 730.108, 845.515 731.804, 847.489 733.986 C 848.583 735.196, 850.279 736.614, 851.259 737.139 C 853.584 738.383, 996.859 738.386, 1000.113 737.142 C 1001.426 736.640, 1003.301 735.340, 1004.281 734.252 C 1005.969 732.378, 1006.087 723.546, 1006.565 563.909 C 1007.112 381.600, 1006.780 391.688, 1012.263 390.579 C 1013.493 390.331, 1028.007 389.870, 1044.515 389.557 C 1071.218 389.049, 1075.110 388.766, 1079.776 386.993 C 1086.344 384.498, 1089.080 384.490, 1093.908 386.953 C 1097.458 388.764, 1100.167 388.919, 1131.119 389.074 C 1155.896 389.198, 1165.321 389.576, 1167.684 390.542 C 1174.422 393.295, 1174.037 385.879, 1173.981 511.731 C 1173.930 627.100, 1174.286 640.405, 1177.661 649.465 C 1178.488 651.684, 1180.223 657.075, 1181.516 661.444 C 1190.965 693.371, 1220.369 723.464, 1251.500 733.068 C 1256.450 734.595, 1262.385 736.543, 1264.689 737.396 C 1278.325 742.447, 1332.434 742.067, 1343.997 736.839 C 1346.474 735.719, 1350.855 733.974, 1353.733 732.961 C 1356.611 731.948, 1360.886 729.806, 1363.233 728.200 C 1365.580 726.595, 1368.850 724.562, 1370.500 723.682 C 1373.454 722.107, 1380.320 715.613, 1386.811 708.254 C 1398.879 694.573, 1410.292 659.410, 1406.125 648.750 C 1405.281 646.593, 1404.397 646, 1402.025 646 C 1397.874 646, 1395.363 648.867, 1393.519 655.711 C 1389.804 669.496, 1388.590 672.684, 1385.875 675.785 C 1384.294 677.591, 1383 679.469, 1383 679.958 C 1383 680.447, 1379.836 682.950, 1375.969 685.521 C 1363.225 693.993, 1354.231 693.072, 1343.065 682.150 C 1336.266 675.500, 1336.266 675.500, 1332.883 663 L 1329.500 650.500 1329.852 523.502 C 1330.226 388.922, 1330.091 392.612, 1334.713 390.379 C 1335.696 389.904, 1350.756 389.287, 1368.179 389.008 C 1398.383 388.524, 1399.989 388.402, 1402.668 386.400 C 1407.736 382.613, 1407.878 372.491, 1402.915 368.786 C 1399.961 366.580, 1399.423 366.554, 1363.836 366.897 C 1344.980 367.078, 1335.511 366.809, 1334.097 366.052 C 1329.306 363.488, 1329.296 363.342, 1329.690 301.604 C 1330.077 240.743, 1329.928 238.292, 1325.661 235.531 C 1323.206 233.943, 1308.195 233.595, 1304.398 235.039 C 1300.182 236.642, 1297.258 242.717, 1295.512 253.500 C 1294.429 260.190, 1292.895 265.451, 1290.878 269.395 C 1289.220 272.637, 1286.977 277.658, 1285.894 280.554 C 1284.811 283.449, 1283.234 286.391, 1282.389 287.092 C 1281.545 287.793, 1279.937 290.163, 1278.817 292.358 C 1274.495 300.831, 1248.897 325.963, 1240 330.469 C 1238.075 331.444, 1235.825 332.828, 1235 333.546 C 1232.096 336.073, 1213.717 345.026, 1208.141 346.630 C 1205.039 347.523, 1200.809 349.107, 1198.742 350.151 C 1196.676 351.195, 1190.637 352.943, 1185.322 354.037 C 1180.008 355.130, 1172.924 356.867, 1169.580 357.896 C 1166.236 358.926, 1159.450 360.283, 1154.500 360.913 C 1149.550 361.542, 1138.525 362.965, 1130 364.074 C 1121.475 365.184, 1110.687 366.537, 1106.026 367.082 C 1100.057 367.780, 1096.260 368.830, 1093.180 370.635 C 1088.807 373.197, 1088.807 373.197, 1081.653 370.594 C 1077.233 368.985, 1072.399 367.986, 1069 367.978 C 1044.872 367.923, 993.330 356.767, 982.114 349.172 C 980.676 348.199, 978.285 346.882, 976.800 346.246 C 967.162 342.115, 945.447 321.802, 940.829 312.597 C 939.699 310.344, 937.932 307.579, 936.903 306.452 C 935.874 305.326, 934.153 301.951, 933.080 298.952 C 932.006 295.954, 929.997 290.790, 928.616 287.477 C 925.205 279.298, 921.786 253.179, 922.556 241.178 C 924.233 215.038, 927.757 199.874, 934.822 188.399 C 953.267 158.442, 982.869 141.390, 1019.709 139.501 C 1034.063 138.765, 1038.503 139.261, 1039.442 141.708 C 1040.316 143.986, 1032.462 151.126, 1026.858 153.149 C 1012.771 158.232, 993.035 180.631, 988.860 196.273 C 987.799 200.248, 986.009 206.875, 984.883 211 C 981.222 224.410, 981.800 236.837, 986.813 252.500 C 989.101 259.650, 991.903 266.850, 993.038 268.500 C 994.173 270.150, 996.163 273.525, 997.461 276 C 1000.025 280.893, 1014.040 295.974, 1017.875 297.969 C 1019.182 298.649, 1022.254 300.733, 1024.702 302.602 C 1027.150 304.471, 1029.726 306, 1030.426 306 C 1031.126 306, 1034.730 307.609, 1038.434 309.575 C 1052.741 317.167, 1088.003 317.714, 1102.365 310.567 C 1105.189 309.161, 1109.357 307.373, 1111.626 306.594 C 1122.846 302.739, 1146.090 281.208, 1150.547 270.542 C 1151.331 268.664, 1153.098 265.470, 1154.473 263.444 C 1155.848 261.418, 1157.651 257.452, 1158.480 254.630 C 1159.308 251.809, 1160.924 246.350, 1162.070 242.500 C 1170.255 215.001, 1159.224 174.229, 1137.500 151.684 C 1132.477 146.472, 1129.664 144.102, 1119.175 136.254 C 1113.006 131.639, 1092.416 121, 1089.652 121 C 1088.712 121, 1083.928 119.677, 1079.021 118.060 C 1063.065 112.802, 1031.856 110.940, 1001.394 113.428 M 256.267 123.738 C 205.034 124.018, 205.034 124.018, 203.407 126.502 C 201.021 130.142, 202.220 132.945, 208.471 138.342 C 211.520 140.974, 214.799 144.562, 215.757 146.314 C 217.396 149.309, 217.534 163.683, 218.068 386.500 C 218.490 562.367, 218.938 624.751, 219.807 628.351 C 220.451 631.019, 221.413 634.844, 221.945 636.851 C 222.477 638.858, 223.849 645.849, 224.994 652.386 C 226.331 660.018, 227.928 665.745, 229.456 668.386 C 230.765 670.649, 232.362 674.525, 233.005 677 C 233.648 679.475, 235.210 682.625, 236.477 684 C 237.743 685.375, 239.789 688.525, 241.022 691 C 247.364 703.727, 269.325 723.746, 285 731.088 C 286.375 731.733, 291.100 733.970, 295.500 736.060 C 299.900 738.150, 306.162 740.340, 309.415 740.926 C 312.668 741.513, 318.612 743.126, 322.624 744.511 C 334.290 748.537, 355.056 749.535, 396 748.036 C 432.921 746.683, 434.336 746.428, 438.022 740.464 C 440.350 736.698, 440.350 736.698, 437.708 734.425 C 435.893 732.864, 433.255 731.972, 429.283 731.578 C 409.731 729.636, 394.519 722.014, 382.892 708.333 C 375.697 699.867, 372.297 694.761, 370.683 690 C 369.844 687.525, 367.982 682.952, 366.545 679.837 C 365.109 676.723, 362.500 667.723, 360.748 659.837 L 357.562 645.500 357.031 387.273 C 356.500 129.045, 356.500 129.045, 353.728 126.273 C 350.539 123.082, 355.034 123.199, 256.267 123.738 M 412.750 364.080 C 411.518 364.798, 411.005 366.343, 411.015 369.300 C 411.035 374.671, 411.737 375.692, 417.606 378.878 C 423.868 382.277, 426.249 385.985, 428.864 396.409 C 430.983 404.862, 431 405.814, 431 519.409 C 431 628.703, 431.091 634.507, 433.001 647.506 C 435.268 662.931, 436.761 669.604, 438.595 672.500 C 439.292 673.600, 440.991 677.519, 442.371 681.209 C 443.750 684.899, 445.750 689.174, 446.814 690.709 C 447.878 692.244, 449.592 694.910, 450.624 696.634 C 456.257 706.042, 470.190 720.322, 478.083 724.774 C 479.962 725.834, 483.250 727.894, 485.390 729.351 C 487.529 730.808, 489.791 732, 490.418 732 C 491.044 732, 494.694 733.499, 498.528 735.330 C 506.383 739.082, 511.025 740.123, 532.760 743.010 C 548.021 745.036, 548.021 745.036, 564.260 742.942 C 573.192 741.790, 583.425 740.251, 587 739.521 C 594.259 738.040, 613.172 730.438, 617.803 727.141 C 619.456 725.963, 621.271 725, 621.836 725 C 623.517 725, 631.815 718.050, 640.493 709.374 C 648.886 700.982, 653.770 697.622, 655.772 698.859 C 656.626 699.387, 656.991 721.158, 657.176 782.536 C 657.426 865.500, 657.426 865.500, 654.080 882 C 648.942 907.340, 641.381 921.446, 625.746 934.858 C 622.311 937.805, 617.925 940.886, 616 941.704 C 614.075 942.522, 611.540 944.078, 610.367 945.161 C 608.526 946.859, 595.318 951.330, 584 954.085 C 575.437 956.169, 560.513 956.371, 558.571 954.428 C 556.784 952.641, 556.873 952.462, 561.615 948.255 C 564.302 945.872, 568.300 942.974, 570.500 941.814 C 574.831 939.530, 581.962 933.926, 585.371 930.127 C 586.542 928.822, 588.891 926.291, 590.592 924.502 C 607.864 906.332, 611.885 864.238, 598.773 838.840 C 596.315 834.077, 593.137 828.902, 591.711 827.340 C 584.118 819.019, 578.174 813.245, 575.500 811.594 C 573.850 810.575, 571.375 808.744, 570 807.526 C 568.625 806.307, 564.800 804.267, 561.500 802.992 C 558.200 801.716, 555.050 800.341, 554.500 799.934 C 547.957 795.100, 511.758 794.110, 500.130 798.446 C 490.011 802.220, 481.745 806.176, 476.891 809.569 C 449.211 828.914, 436.581 861.203, 442.476 897.549 C 446.113 919.976, 466.635 949.120, 485.601 958.796 C 487.819 959.928, 490.181 961.513, 490.850 962.319 C 491.519 963.125, 493.514 964.335, 495.283 965.008 C 497.052 965.681, 501.650 967.735, 505.500 969.572 C 510.112 971.772, 518.300 974.183, 529.500 976.637 C 546.500 980.362, 546.500 980.362, 576 980.324 C 605.500 980.287, 605.500 980.287, 625.853 976.113 C 637.047 973.817, 648.747 970.881, 651.853 969.588 C 654.959 968.296, 660.141 966.482, 663.369 965.557 C 666.597 964.632, 670.872 962.848, 672.869 961.593 C 674.866 960.338, 678.876 958.525, 681.781 957.565 C 684.686 956.604, 688.358 954.728, 689.942 953.396 C 691.525 952.063, 694.324 950.333, 696.161 949.552 C 697.997 948.770, 702.425 945.844, 706 943.049 C 709.575 940.253, 714.750 936.217, 717.500 934.080 C 734.207 921.093, 756.416 894.156, 764.563 877 C 765.999 873.975, 767.786 870.817, 768.532 869.982 C 770.271 868.038, 777.564 850.462, 780.143 842 C 781.233 838.425, 783.248 832.041, 784.620 827.812 C 787.179 819.929, 790.523 803.468, 794.231 780.500 C 796.310 767.620, 796.331 765.644, 796.415 567.162 C 796.500 366.825, 796.500 366.825, 794.139 364.912 C 790.402 361.885, 655.278 361.931, 652.536 364.961 C 650.228 367.510, 651.082 373.806, 654.814 381.769 C 657.500 387.500, 657.500 387.500, 657.500 512.608 L 657.500 637.715 654 647.900 C 648.942 662.617, 642.637 670.532, 630.500 677.397 C 621.912 682.254, 621.108 682.503, 612.939 682.836 C 603.947 683.202, 601.998 682.672, 593.500 677.545 C 589.366 675.051, 584.015 668.746, 581.572 663.489 C 578.069 655.952, 577.818 646.538, 577.407 507.500 C 576.973 360.624, 577.230 367.204, 571.835 364.415 C 568.422 362.650, 415.757 362.329, 412.750 364.080" stroke="none" fill="#1A1614" fill-rule="evenodd"/></svg>